<?xml version="1.0" encoding="utf-8" ?>	<!-- Generator: Assembly 1.8 - http://assemblyapp.co -->	<svg version="1.1" xmlns="http://www.w3.org/2000/svg" xmlns:xlink="http://www.w3.org/1999/xlink" width="1638.40" height="2048.00" viewBox="0 0 1638.4000244140625 2048.0"><g id="document" transform="matrix(1,0,0,1,819.2000122070312,1024.0)">			<path d="M418.854,63.4713 L434.411,53.6639 C434.411,53.6639 430.352,48.9293 426.294,44.5329 C424.265,42.5038 422.236,40.1365 420.545,38.7838 C418.854,37.431 417.84,36.4165 417.84,36.4165 C417.84,36.4165 421.221,31.6819 424.265,26.2709 C425.618,23.5654 426.971,20.8599 427.985,18.8308 C429,16.8017 429.338,15.1108 429.338,15.1108 C429.338,15.1108 427.985,14.4344 426.294,13.4199 C425.28,12.7435 424.265,12.0671 422.912,11.3908 C421.56,10.7144 420.545,10.038 418.854,9.02346 C413.781,5.97979 408.709,3.27431 408.709,3.27431 C408.709,3.27431 409.385,1.92157 410.061,-0.107543 C410.738,-2.13666 411.414,-4.84213 412.09,-7.8858 C412.767,-10.9295 413.443,-13.9731 413.781,-16.0022 C414.119,-18.0314 414.458,-20.0605 414.458,-20.0605 C414.458,-20.0605 408.709,-22.0896 402.959,-24.1187 C397.21,-25.4714 391.461,-26.8242 391.461,-26.8242 C391.461,-26.8242 391.461,-28.1769 391.799,-30.5442 C392.137,-32.9115 392.137,-35.617 391.799,-38.6607 C391.799,-44.748 391.123,-51.1735 391.123,-51.1735 C391.123,-51.1735 384.697,-51.8499 378.61,-51.8499 C375.566,-51.8499 372.861,-51.8499 370.494,-51.8499 C368.464,-51.5117 366.774,-51.5117 366.774,-51.5117 C366.774,-51.5117 365.759,-57.2608 364.068,-63.01 C362.377,-68.421 360.348,-74.1701 360.348,-74.1701 C360.348,-74.1701 358.995,-73.8319 356.628,-73.4937 C354.599,-73.1555 351.217,-72.141 348.512,-71.8028 C345.468,-71.1264 342.762,-70.4501 340.733,-69.7737 C338.704,-69.0973 337.351,-68.421 337.351,-68.421 C337.351,-68.421 334.984,-73.4937 331.602,-78.5665 C330.588,-79.9192 330.25,-81.272 329.235,-82.6247 C328.22,-83.9775 327.882,-84.6538 327.206,-86.0066 C325.853,-87.6975 325.177,-89.0502 325.177,-89.0502 C325.177,-89.0502 323.824,-88.3739 321.457,-87.6975 C319.089,-87.0211 316.722,-85.6684 314.017,-83.9775 C308.606,-80.9338 303.871,-77.552 303.871,-77.552 C303.871,-77.552 302.857,-78.9047 301.504,-80.2574 C300.151,-81.9484 297.784,-83.9775 295.755,-86.0066 C291.358,-90.403 286.624,-94.123 286.624,-94.123 L286.624,-12.9586 C286.624,-12.9586 288.653,-16.6786 291.358,-20.3987 C292.711,-22.0896 294.064,-24.4569 295.416,-25.4714 C296.769,-26.8242 297.107,-27.5005 297.107,-27.5005 C297.107,-27.5005 299.137,-23.1041 301.166,-19.0459 C301.842,-17.0168 302.18,-14.6495 302.857,-12.9586 C303.195,-11.6058 303.533,-10.2531 303.533,-10.2531 C303.533,-10.2531 304.547,-11.2677 305.562,-12.2822 C306.238,-12.9586 306.915,-13.635 307.591,-14.6495 C308.606,-15.3259 308.944,-16.0022 309.958,-16.6786 C313.678,-19.3841 317.399,-22.0896 317.399,-22.0896 C317.399,-22.0896 317.737,-20.7368 318.075,-19.0459 C318.413,-17.355 318.751,-14.6495 319.089,-12.6204 C319.428,-10.2531 319.428,-8.22399 319.428,-6.53306 C319.428,-4.84213 319.428,-3.82758 319.428,-3.82758 C319.428,-3.82758 323.148,-5.85669 327.544,-8.22399 C331.94,-9.91491 336.337,-11.6058 336.337,-11.6058 C336.337,-11.6058 336.337,-10.2531 335.999,-8.56217 C335.999,-6.87125 335.661,-4.50395 334.984,-2.13666 C334.308,2.25976 333.293,6.65616 333.293,6.65616 C333.293,6.65616 337.69,5.30342 342.086,4.96523 C344.453,4.62705 346.821,4.28887 348.512,3.95068 C350.202,3.95068 351.555,3.6125 351.555,3.6125 C351.555,3.6125 350.202,8.0089 348.173,12.4053 C346.144,16.8017 343.777,20.5218 343.777,20.5218 C343.777,20.5218 345.13,20.5218 346.482,20.5218 C348.173,20.5218 350.541,20.8599 352.57,20.8599 C354.599,21.1981 356.966,21.5363 358.995,21.8745 C360.686,22.2127 362.039,22.5509 362.039,22.5509 C362.039,22.5509 359.333,26.6091 356.628,29.9909 C355.952,31.0055 355.275,31.6819 354.599,32.3582 C353.923,33.3728 353.246,33.711 352.57,34.3873 C351.217,35.7401 350.541,36.4165 350.541,36.4165 C350.541,36.4165 351.893,36.7546 353.246,37.0928 C354.599,37.7692 357.304,38.4456 359.333,39.1219 C363.73,40.4747 367.788,43.1802 367.788,43.1802 C367.788,43.1802 366.774,44.1947 365.759,44.8711 C364.406,46.2238 362.377,47.5766 360.686,48.9293 C356.966,51.6348 352.908,54.0021 352.908,54.0021 L368.464,63.8095 L352.908,73.6168 L368.464,83.4242 L352.908,93.2316 L368.464,103.039 L352.908,112.846 L368.464,122.654 L352.908,132.461 L368.464,142.268 L352.908,152.076 L368.464,161.883 L352.908,171.691 L368.464,181.498 L352.908,191.305 L368.464,201.113 L352.908,210.92 L434.411,210.92 L418.854,199.422 L434.411,189.614 L418.854,179.807 L434.411,170 L418.854,160.192 L434.411,150.385 L418.854,140.577 L434.411,130.77 L418.854,121.639 L434.411,111.832 L418.854,102.024 L434.411,92.217 L418.854,82.4096 L434.411,72.6023 L418.854,63.4713 Z " fill="#393e45" fill-opacity="1.00" />			<path d="M-329.195,45.833 L-344.752,36.0256 C-344.752,36.0256 -340.694,31.291 -336.635,26.8946 C-334.606,24.8655 -332.577,22.4982 -330.886,21.1455 C-329.195,19.7927 -328.181,18.7782 -328.181,18.7782 C-328.181,18.7782 -331.563,14.0436 -334.606,8.63262 C-335.959,5.92714 -337.312,3.22166 -338.326,1.19255 C-339.341,-0.836566 -339.679,-2.52749 -339.679,-2.52749 C-339.679,-2.52749 -338.326,-3.20386 -336.635,-4.21842 C-335.621,-4.89479 -334.606,-5.57116 -333.253,-6.24753 C-331.901,-6.9239 -330.886,-7.60027 -329.195,-8.61483 C-324.122,-11.6585 -319.05,-14.364 -319.05,-14.364 C-319.05,-14.364 -319.726,-15.7167 -320.402,-17.7458 C-321.079,-19.7749 -321.755,-22.4804 -322.432,-25.5241 C-323.108,-28.5678 -323.784,-31.6114 -324.122,-33.6405 C-324.461,-35.6696 -324.799,-37.6988 -324.799,-37.6988 C-324.799,-37.6988 -319.05,-39.7279 -313.301,-41.757 C-307.551,-43.1097 -301.802,-44.4625 -301.802,-44.4625 C-301.802,-44.4625 -301.802,-45.8152 -302.14,-48.1825 C-302.479,-50.5498 -302.479,-53.2553 -302.14,-56.2989 C-302.14,-62.3863 -301.464,-68.8118 -301.464,-68.8118 C-301.464,-68.8118 -295.039,-69.4882 -288.951,-69.4882 C-285.908,-69.4882 -283.202,-69.4882 -280.835,-69.4882 C-278.806,-69.15 -277.115,-69.15 -277.115,-69.15 C-277.115,-69.15 -276.1,-74.8991 -274.409,-80.6483 C-272.718,-86.0592 -270.689,-91.8084 -270.689,-91.8084 C-270.689,-91.8084 -269.336,-91.4702 -266.969,-91.132 C-264.94,-90.7938 -261.558,-89.7793 -258.853,-89.4411 C-255.809,-88.7647 -253.104,-88.0883 -251.074,-87.412 C-249.045,-86.7356 -247.693,-86.0592 -247.693,-86.0592 C-247.693,-86.0592 -245.325,-91.132 -241.943,-96.2048 C-240.929,-97.5575 -240.591,-98.9103 -239.576,-100.263 C-238.562,-101.616 -238.223,-102.292 -237.547,-103.645 C-236.194,-105.336 -235.518,-106.689 -235.518,-106.689 C-235.518,-106.689 -234.165,-106.012 -231.798,-105.336 C-229.431,-104.659 -227.063,-103.307 -224.358,-101.616 C-218.947,-98.5721 -214.212,-95.1902 -214.212,-95.1902 C-214.212,-95.1902 -213.198,-96.543 -211.845,-97.8957 C-210.492,-99.5866 -208.125,-101.616 -206.096,-103.645 C-201.699,-108.041 -196.965,-111.761 -196.965,-111.761 L-196.965,-30.5969 C-196.965,-30.5969 -198.994,-34.3169 -201.699,-38.0369 C-203.052,-39.7279 -204.405,-42.0952 -205.758,-43.1097 C-207.11,-44.4625 -207.449,-45.1388 -207.449,-45.1388 C-207.449,-45.1388 -209.478,-40.7424 -211.507,-36.6842 C-212.183,-34.6551 -212.521,-32.2878 -213.198,-30.5969 C-213.536,-29.2441 -213.874,-27.8914 -213.874,-27.8914 C-213.874,-27.8914 -214.889,-28.9059 -215.903,-29.9205 C-216.58,-30.5969 -217.256,-31.2732 -217.932,-32.2878 C-218.947,-32.9642 -219.285,-33.6405 -220.3,-34.3169 C-224.02,-37.0224 -227.74,-39.7279 -227.74,-39.7279 C-227.74,-39.7279 -228.078,-38.3751 -228.416,-36.6842 C-228.754,-34.9933 -229.092,-32.2878 -229.431,-30.2587 C-229.769,-27.8914 -229.769,-25.8623 -229.769,-24.1713 C-229.769,-22.4804 -229.769,-21.4659 -229.769,-21.4659 C-229.769,-21.4659 -233.489,-23.495 -237.885,-25.8623 C-242.282,-27.5532 -246.678,-29.2441 -246.678,-29.2441 C-246.678,-29.2441 -246.678,-27.8914 -246.34,-26.2005 C-246.34,-24.5095 -246.002,-22.1422 -245.325,-19.7749 C-244.649,-15.3785 -243.634,-10.9821 -243.634,-10.9821 C-243.634,-10.9821 -248.031,-12.3349 -252.427,-12.673 C-254.794,-13.0112 -257.162,-13.3494 -258.853,-13.6876 C-260.544,-13.6876 -261.896,-14.0258 -261.896,-14.0258 C-261.896,-14.0258 -260.544,-9.62938 -258.515,-5.23297 C-256.485,-0.836566 -254.118,2.88347 -254.118,2.88347 C-254.118,2.88347 -255.471,2.88347 -256.824,2.88347 C-258.515,2.88347 -260.882,3.22166 -262.911,3.22166 C-264.94,3.55984 -267.307,3.89803 -269.336,4.23621 C-271.027,4.5744 -272.38,4.91258 -272.38,4.91258 C-272.38,4.91258 -269.675,8.9708 -266.969,12.3527 C-266.293,13.3672 -265.616,14.0436 -264.94,14.72 C-264.264,15.7345 -263.587,16.0727 -262.911,16.7491 C-261.558,18.1018 -260.882,18.7782 -260.882,18.7782 C-260.882,18.7782 -262.235,19.1164 -263.587,19.4545 C-264.94,20.1309 -267.646,20.8073 -269.675,21.4837 C-274.071,22.8364 -278.129,25.5419 -278.129,25.5419 C-278.129,25.5419 -277.115,26.5564 -276.1,27.2328 C-274.747,28.5855 -272.718,29.9383 -271.027,31.291 C-267.307,33.9965 -263.249,36.3638 -263.249,36.3638 L-278.806,46.1712 L-263.249,55.9785 L-278.806,65.7859 L-263.249,75.5933 L-278.806,85.4007 L-263.249,95.208 L-278.806,105.015 L-263.249,114.823 L-278.806,124.63 L-263.249,134.438 L-278.806,144.245 L-263.249,154.052 L-278.806,163.86 L-263.249,173.667 L-278.806,183.474 L-263.249,193.282 L-344.752,193.282 L-329.195,181.783 L-344.752,171.976 L-329.195,162.169 L-344.752,152.361 L-329.195,142.554 L-344.752,132.747 L-329.195,122.939 L-344.752,113.132 L-329.195,104.001 L-344.752,94.1935 L-329.195,84.3861 L-344.752,74.5787 L-329.195,64.7714 L-344.752,54.964 L-329.195,45.833 Z " fill="#393e45" fill-opacity="1.00" />			<path d="M-9.86382,-935.53 L-9.86382,-675.831 " fill="none" stroke-width="16.33" stroke="#858788" stroke-linecap="round" stroke-linejoin="round" />			<path d="M79.0605,620.614 L147.582,620.614 L147.582,344.983 L79.0605,344.983 L79.0605,620.614 Z " fill="#1b1f21" fill-opacity="1.00" />			<path d="M79.0605,620.614 L147.582,620.614 L147.582,590.193 L79.0605,590.193 L79.0605,620.614 Z M79.0605,512.758 L147.582,512.758 L147.582,486.639 L79.0605,486.639 L79.0605,512.758 Z M79.0605,443.927 L147.582,443.927 L147.582,417.808 L79.0605,417.808 L79.0605,443.927 Z M79.0605,409.512 L147.582,409.512 L147.582,383.393 L79.0605,383.393 L79.0605,409.512 Z M79.0605,581.896 L147.582,581.896 L147.582,555.777 L79.0605,555.777 L79.0605,581.896 Z M79.0605,375.404 L147.582,375.404 L147.582,344.983 L79.0605,344.983 L79.0605,375.404 Z M79.0605,478.343 L147.582,478.343 L147.582,452.224 L79.0605,452.224 L79.0605,478.343 Z M79.0605,547.173 L147.582,547.173 L147.582,521.055 L79.0605,521.055 L79.0605,547.173 Z " fill="#3a414b" fill-opacity="1.00" />			<g>				<path d="M-182.567,604.494 L-117.327,625.445 L-33.0489,363.015 L-98.2884,342.064 L-182.567,604.494 Z " fill="#1b1f21" fill-opacity="1.00" />				<path d="M-182.567,604.494 L-117.327,625.445 L-108.026,596.481 L-173.265,575.53 L-182.567,604.494 Z M-149.588,501.804 L-84.3488,522.755 L-76.3626,497.887 L-141.602,476.936 L-149.588,501.804 Z M-128.542,436.269 L-63.3027,457.221 L-55.3164,432.353 L-120.556,411.401 L-128.542,436.269 Z M-118.019,403.502 L-52.7796,424.454 L-44.7934,399.586 L-110.033,378.634 L-118.019,403.502 Z M-170.728,567.631 L-105.489,588.582 L-97.5026,563.714 L-162.742,542.763 L-170.728,567.631 Z M-107.59,371.028 L-42.3505,391.979 L-33.0489,363.015 L-98.2884,342.064 L-107.59,371.028 Z M-139.065,469.037 L-73.8257,489.988 L-65.8395,465.12 L-131.079,444.169 L-139.065,469.037 Z M-160.111,534.571 L-94.8719,555.522 L-86.8856,530.654 L-152.125,509.703 L-160.111,534.571 Z " fill="#3a414b" fill-opacity="1.00" />				<path d="M-114.308,670.149 C-105.723,643.418 -120.413,614.829 -147.145,606.244 C-173.876,597.659 -202.466,612.349 -211.05,639.081 L-114.308,670.149 Z " fill="#1b1f21" fill-opacity="1.00" />				<path d="M-112.77,665.36 C-104.185,638.628 -118.875,610.039 -145.607,601.454 C-172.338,592.87 -200.927,607.56 -209.512,634.291 L-112.77,665.36 Z " fill="#585e69" fill-opacity="1.00" />			</g>			<path d="M-152.547,348.494 C-152.547,356.731 -138.55,363.442 -121.371,363.442 L168.119,363.442 C185.298,363.442 199.295,356.731 199.295,348.494 L199.295,73.3456 C199.295,65.1094 185.298,58.3985 168.119,58.3985 L-121.371,58.3985 C-138.55,58.3985 -152.547,65.1094 -152.547,73.3456 L-152.547,348.494 Z " fill="#3a414b" fill-opacity="1.00" />			<path d="M-285.02,-139.47 C-285.02,29.1067 -148.553,165.573 20.0231,165.573 C188.599,165.573 325.066,29.1067 325.066,-139.47 L-285.02,-139.47 Z " fill="#1b1f21" fill-opacity="1.00" />			<path d="M-196.965,-111.761 C-196.965,8.58878 -99.5385,106.015 20.8115,106.015 C141.162,106.015 238.588,8.5888 238.588,-111.761 L-196.965,-111.761 Z " fill="#3a414b" fill-opacity="1.00" />			<path d="M427.05,-482.178 L427.05,-539.252 C427.05,-562.949 407.977,-582.021 384.281,-582.021 C360.584,-582.021 341.511,-562.949 341.511,-539.252 L341.511,-482.178 C341.511,-458.481 360.584,-439.409 384.281,-439.409 C407.833,-439.409 427.05,-458.481 427.05,-482.178 Z " fill="#3a414b" fill-opacity="1.00" />			<path d="M-285.02,-147.318 C-285.02,-97.4327 -235.209,-100.2 -165.335,-100.2 L214.809,-100.2 C284.683,-100.2 325.066,-97.4327 325.066,-147.318 C325.066,-197.202 284.683,-201.522 214.809,-201.522 L-165.335,-201.522 C-235.209,-201.522 -285.02,-197.202 -285.02,-147.318 Z " fill="#1b1f21" fill-opacity="1.00" />			<path d="M-60.7112,-149.476 C4.47993,-136.88 31.8683,-137.51 100.757,-149.476 C169.646,-161.441 221.757,-206.692 221.757,-263.779 C221.757,-320.866 167.797,-366.815 100.757,-366.815 L-60.7112,-366.814 C-127.751,-366.814 -181.71,-320.866 -181.71,-263.779 C-181.71,-207.04 -125.902,-162.071 -60.7112,-149.476 Z " fill="#575d68" fill-opacity="1.00" />			<path d="M-425.004,-476.363 L-425.004,-533.437 C-425.004,-557.134 -405.932,-576.206 -382.235,-576.206 C-358.538,-576.206 -339.466,-557.134 -339.466,-533.437 L-339.466,-476.363 C-339.466,-452.667 -358.538,-433.594 -382.235,-433.594 C-405.787,-433.594 -425.004,-452.667 -425.004,-476.363 Z " fill="#3a414b" fill-opacity="1.00" />			<path d="M62.0644,-478.054 L62.0644,-535.128 C62.0644,-558.824 81.1372,-577.897 104.834,-577.897 C128.53,-577.897 147.603,-558.824 147.603,-535.128 L147.603,-478.054 C147.603,-454.357 128.53,-435.285 104.834,-435.285 C81.2817,-435.285 62.0644,-454.357 62.0644,-478.054 Z " fill="#3a414b" fill-opacity="1.00" />			<path d="M-1.69705,-203.865 C218.637,-203.865 397.002,-338.12 397.002,-503.965 C397.002,-669.81 218.637,-804.065 -1.69705,-804.065 C-222.031,-804.065 -400.396,-669.81 -400.396,-503.965 C-400.396,-338.12 -222.031,-203.865 -1.69705,-203.865 Z " fill="#1b1f21" fill-opacity="1.00" />			<path d="M-1.69704,-262.601 C177.44,-262.601 322.456,-371.755 322.456,-506.591 C322.456,-641.427 177.44,-750.58 -1.69704,-750.58 C-180.834,-750.58 -325.85,-641.427 -325.85,-506.591 C-325.85,-371.755 -180.834,-262.601 -1.69704,-262.601 Z " fill="#4d4d4d" fill-opacity="0.48" />			<path d="M254.048,-493.106 C254.048,-609.078 139.474,-703.04 -1.69704,-703.04 C-142.868,-703.04 -257.442,-609.078 -257.442,-493.106 C-257.442,-377.135 -142.868,-349.771 -1.69704,-349.771 C139.474,-349.771 254.048,-377.135 254.048,-493.106 Z " fill="#3a414b" fill-opacity="1.00" />			<path d="M227.899,-716.243 C223.049,-710.158 224.057,-701.23 230.141,-696.38 L263.244,-669.993 C269.328,-665.143 278.257,-666.15 283.107,-672.235 C287.957,-678.32 286.949,-687.248 280.865,-692.098 L247.762,-718.485 C241.678,-723.336 232.749,-722.328 227.899,-716.243 Z " fill="#ffffff" fill-opacity="0.16" />			<path d="M44.8197,-493.201 C108.435,-445.498 183.718,-438.6 213.099,-477.782 C242.481,-516.964 214.769,-587.3 151.154,-635.003 C87.5386,-682.706 12.2555,-689.604 -17.1262,-650.422 C-46.508,-611.24 -18.7953,-540.904 44.8197,-493.201 Z " fill="#ffffff" fill-opacity="0.03" />			<path d="M-124.068,-526.406 C-124.068,-498.884 -110.346,-476.605 -93.3947,-476.605 C-76.4434,-476.605 -62.721,-498.884 -62.721,-526.406 C-62.721,-553.927 -76.4434,-576.206 -93.3947,-576.206 C-110.346,-576.206 -124.068,-553.927 -124.068,-526.406 Z " fill="#ffffff" fill-opacity="1.00" />			<path d="M62.0644,-526.406 C62.0644,-498.884 75.7868,-476.605 92.7381,-476.605 C109.689,-476.605 123.412,-498.884 123.412,-526.406 C123.412,-553.927 109.689,-576.206 92.7381,-576.206 C75.7868,-576.206 62.0644,-553.927 62.0644,-526.406 Z " fill="#ffffff" fill-opacity="1.00" />			<path d="M77.9712,-444.225 M77.9712,-444.225 C77.9712,-405.963 42.385,-374.963 -1.53674,-374.963 C-45.4585,-374.963 -81.0447,-405.963 -81.0447,-444.225 " fill="none" stroke-width="16.30" stroke="#ffffff" stroke-linecap="round" stroke-linejoin="round" />			<path d="M-54.2,-59.3978 C-47.9702,-55.801 -46.5737,-46.4726 -51.0932,-38.6447 L-75.6806,3.94194 C-80.2,11.7698 -88.9769,15.2246 -95.2067,11.6279 C-101.436,8.03111 -102.833,-1.29728 -98.3135,-9.12519 L-73.7261,-51.7119 C-69.2067,-59.5398 -60.4298,-62.9946 -54.2,-59.3978 Z " fill="#575d68" fill-opacity="1.00" />			<path d="M40.5264,-47.5659 C46.7562,-43.9691 48.1527,-34.6407 43.6332,-26.8128 L19.0458,15.7739 C14.5264,23.6018 5.74949,27.0566 -0.480277,23.4598 C-6.71005,19.863 -8.10655,10.5346 -3.58711,2.70674 L21.0003,-39.8799 C25.5198,-47.7078 34.2966,-51.1626 40.5264,-47.5659 Z " fill="#575d68" fill-opacity="1.00" />			<path d="M135.253,-47.5659 C141.483,-43.9691 142.879,-34.6407 138.36,-26.8128 L113.772,15.7739 C109.253,23.6018 100.476,27.0566 94.2461,23.4598 C88.0164,19.863 86.6199,10.5346 91.1393,2.70674 L115.727,-39.8799 C120.246,-47.7078 129.023,-51.1626 135.253,-47.5659 Z " fill="#575d68" fill-opacity="1.00" />			<path d="M267.083,-73.6301 C266.683,-42.5776 259.03,-24.2632 235.384,2.39585 C232.829,5.27637 236.402,9.50326 239.282,12.0582 C242.163,14.6131 248.859,14.3492 251.414,11.4687 C277.201,-17.6042 286.179,-39.0894 286.623,-73.6301 C286.673,-77.4802 281.302,-80.6414 277.452,-80.6909 C273.602,-80.7405 267.132,-77.4801 267.083,-73.6301 Z " fill="#585e69" fill-opacity="0.49" />			<path d="M-22.2019,-893.261 C4.56289,-886.884 31.3921,-903.389 37.7692,-930.153 C44.1464,-956.918 27.642,-983.747 0.877196,-990.125 C-25.8876,-996.502 -52.7168,-979.997 -59.094,-953.233 C-65.4711,-926.468 -48.9668,-899.639 -22.2019,-893.261 Z " fill="#3a414b" fill-opacity="1.00" />			<path d="M-319.349,385.277 L-319.349,349.949 L-335.289,322.161 L-319.349,294.589 L-287.252,294.589 L-271.312,322.377 L-287.252,350.165 L-287.252,385.277 C-260.326,378.599 -239.647,355.119 -237.277,327.116 C-235.769,309.237 -241.37,292.435 -251.494,279.725 C-265.496,262.062 -273.897,240.951 -273.897,218.333 L-273.897,192.268 L-332.273,192.268 L-332.273,217.902 C-332.273,239.874 -339.382,261.631 -353.815,278.217 C-363.724,289.85 -369.54,304.713 -369.54,320.869 C-369.54,352.104 -348.214,378.168 -319.349,385.277 Z " fill="#393e45" fill-opacity="1.00" />			<path d="M359.548,237.034 C376.768,219.814 405.075,219.814 422.296,237.034 C439.516,254.254 439.516,282.562 422.296,299.782 L443.29,320.777 C472.187,291.644 471.951,244.937 443.172,216.158 C414.393,187.378 367.45,187.378 338.671,216.158 C309.892,244.937 309.892,291.88 338.671,320.659 L359.548,299.782 C342.328,282.562 342.328,254.254 359.548,237.034 Z " fill="#393e45" fill-opacity="1.00" />			<path d="M164.125,662.253 C164.125,634.177 141.397,611.449 113.321,611.449 C85.2451,611.449 62.5168,634.177 62.5168,662.253 L164.125,662.253 Z " fill="#1b1f21" fill-opacity="1.00" />			<path d="M164.125,657.223 C164.125,629.147 141.397,606.419 113.321,606.419 C85.2451,606.419 62.5168,629.147 62.5168,657.223 L164.125,657.223 Z " fill="#585e69" fill-opacity="1.00" />			<path d="M-480.226,841.003 C-480.226,819.994 -487.114,803.462 -499.513,791.408 C-498.824,791.064 -498.135,790.375 -497.446,789.686 C-497.102,788.997 -496.413,788.308 -496.069,787.964 C-486.081,775.909 -480.914,758 -480.914,734.58 C-480.914,687.395 -501.579,662.253 -545.319,662.253 L-598.015,662.253 L-598.015,916.085 L-565.64,916.085 L-565.64,807.595 L-545.319,807.595 C-523.622,807.595 -512.945,818.617 -512.945,841.003 L-512.945,916.085 L-480.226,916.085 L-480.226,841.003 Z M-565.64,694.973 L-545.319,694.973 C-534.643,694.973 -526.721,696.35 -521.211,701.861 C-516.044,707.716 -513.289,717.704 -513.289,734.58 C-513.289,749.734 -515.7,760.411 -520.866,766.955 C-521.899,767.988 -523.966,769.71 -527.066,771.776 C-530.51,773.843 -536.709,774.876 -545.319,774.876 L-565.64,774.876 L-565.64,694.973 Z M-431.434,843.759 C-431.434,866.145 -426.612,883.71 -416.968,896.109 C-409.736,905.408 -395.615,916.085 -371.162,916.085 C-346.364,916.085 -332.587,905.408 -325.355,896.109 C-315.711,883.71 -310.89,866.145 -310.89,843.759 L-310.89,734.58 C-310.89,712.193 -315.711,694.628 -325.355,682.229 C-332.587,672.93 -346.364,662.253 -371.162,662.253 C-383.561,662.253 -392.86,665.009 -400.437,668.797 C-408.014,672.93 -413.18,677.752 -416.968,682.229 C-426.612,694.628 -431.434,712.193 -431.434,734.58 L-431.434,843.759 Z M-399.059,734.58 C-399.059,714.948 -394.582,704.616 -388.727,699.794 C-382.872,694.973 -376.328,694.973 -371.162,694.973 C-366.684,694.973 -359.452,694.973 -353.597,699.794 C-347.742,704.616 -343.264,714.948 -343.264,734.58 L-343.264,843.759 C-343.264,864.079 -347.742,873.723 -353.597,878.544 C-359.452,883.366 -366.684,883.71 -371.162,883.71 C-376.328,883.71 -382.872,883.366 -388.727,878.544 C-394.582,873.723 -399.059,864.079 -399.059,843.759 L-399.059,734.58 Z M-220.079,916.43 C-198.726,916.43 -182.883,909.886 -172.551,897.143 C-162.563,885.777 -157.741,868.212 -157.741,845.136 C-157.741,822.061 -162.563,804.84 -172.551,792.786 C-172.895,791.752 -173.928,790.719 -175.306,789.342 C-173.928,787.964 -172.895,786.931 -172.551,786.242 C-162.563,774.187 -157.741,756.967 -157.741,733.891 C-157.741,710.816 -162.563,693.25 -172.551,681.885 C-182.539,669.142 -198.381,662.598 -220.079,662.598 L-268.986,662.598 L-268.986,916.43 L-220.079,916.43 Z M-220.079,694.973 C-211.814,694.973 -204.236,695.661 -198.726,700.828 C-193.56,706.338 -190.46,715.982 -190.46,733.891 C-190.46,749.39 -192.871,759.722 -197.693,765.577 C-198.726,767.299 -201.137,768.677 -204.236,770.399 C-207.336,772.121 -212.847,773.154 -220.079,773.154 L-236.611,773.154 L-236.611,694.973 L-220.079,694.973 Z M-220.079,805.529 C-211.814,805.529 -204.581,806.218 -199.07,811.384 C-193.904,816.895 -190.46,826.882 -190.46,845.136 C-190.46,863.046 -193.56,872.689 -198.726,877.855 C-204.236,883.366 -211.814,884.055 -220.079,884.055 L-236.611,884.055 L-236.611,805.529 L-220.079,805.529 Z M-116.526,843.759 C-116.526,866.145 -111.704,883.71 -102.061,896.109 C-94.8282,905.408 -80.7073,916.085 -56.254,916.085 C-31.4563,916.085 -17.6798,905.408 -10.4472,896.109 C-0.803629,883.71 4.01814,866.145 4.01814,843.759 L4.01814,734.58 C4.01814,712.193 -0.803629,694.628 -10.4472,682.229 C-17.6798,672.93 -31.4563,662.253 -56.254,662.253 C-68.6529,662.253 -77.952,665.009 -85.5291,668.797 C-93.1061,672.93 -98.2723,677.752 -102.061,682.229 C-111.704,694.628 -116.526,712.193 -116.526,734.58 L-116.526,843.759 Z M-84.1514,734.58 C-84.1514,714.948 -79.674,704.616 -73.819,699.794 C-67.964,694.973 -61.4202,694.973 -56.254,694.973 C-51.7766,694.973 -44.544,694.973 -38.689,699.794 C-32.834,704.616 -28.3566,714.948 -28.3566,734.58 L-28.3566,843.759 C-28.3566,864.079 -32.834,873.723 -38.689,878.544 C-44.544,883.366 -51.7766,883.71 -56.254,883.71 C-61.4202,883.71 -67.964,883.366 -73.819,878.544 C-79.674,873.723 -84.1514,864.079 -84.1514,843.759 L-84.1514,734.58 Z M45.9216,694.973 L101.372,694.973 L101.372,916.085 L134.091,916.085 L134.091,694.973 L189.542,694.973 L189.542,662.253 L45.9216,662.253 L45.9216,694.973 Z M270.364,662.598 L237.989,662.598 L237.989,916.43 L270.364,916.43 L270.364,662.598 Z M320.189,843.759 C320.189,866.145 325.01,883.71 334.654,896.109 C338.442,900.587 343.609,905.753 351.186,909.541 C358.763,913.674 368.062,916.43 380.461,916.43 C405.258,916.43 418.691,905.408 425.923,896.109 C435.911,883.366 440.733,866.145 440.733,843.759 L440.733,827.571 L408.014,827.571 L408.014,843.759 C408.014,858.568 405.603,869.245 400.437,876.133 C397.681,879.233 392.86,884.055 380.461,884.055 C374.261,884.055 369.784,883.022 366.684,881.3 C363.585,879.578 361.518,877.855 360.485,876.133 C355.319,869.59 352.563,858.568 352.563,843.759 L352.563,734.924 C352.563,715.293 357.041,704.616 362.896,699.794 C368.751,694.973 375.295,694.973 380.461,694.973 C384.938,694.973 392.171,694.973 398.026,699.794 C403.536,704.616 408.014,715.293 408.014,734.924 L408.014,751.112 L440.733,751.112 L440.733,734.924 C440.733,712.538 435.911,695.317 425.923,682.574 C418.691,673.275 405.258,662.598 380.461,662.598 C355.663,662.598 341.887,673.275 334.654,682.574 C325.01,694.973 320.189,712.538 320.189,734.924 L320.189,843.759 Z M476.781,844.103 C476.781,889.566 497.102,916.085 537.398,916.085 C576.317,916.085 598.015,884.744 598.015,845.825 C598.015,825.16 590.782,808.284 576.661,795.197 C565.64,784.52 553.241,780.042 546.697,777.287 L541.187,774.876 C532.921,771.776 524.999,767.299 519.144,761.1 C513.289,754.9 509.156,746.979 509.156,734.924 C509.156,730.447 509.501,720.115 513.634,711.16 C517.422,702.205 523.966,694.973 537.398,694.973 C541.875,694.973 549.108,694.973 554.963,699.794 C560.818,704.616 565.295,715.293 565.295,734.924 L565.295,751.112 L598.015,751.112 L598.015,734.924 C598.015,712.538 593.193,694.973 583.205,682.229 C575.972,672.93 562.196,662.253 537.398,662.253 C519.489,662.253 504.334,669.83 493.658,682.229 C482.636,694.973 476.781,713.226 476.781,734.924 C476.781,755.589 483.67,772.465 497.446,785.897 C508.467,796.574 520.866,801.74 528.099,804.84 L534.298,807.595 C541.531,810.695 549.452,814.484 555.307,819.994 C561.162,825.849 565.295,833.771 565.295,845.825 C565.295,852.713 564.607,862.357 560.818,869.934 C556.685,877.511 549.797,883.71 537.398,883.71 C530.854,883.71 526.377,882.677 523.277,880.955 C520.177,879.233 518.111,877.855 517.078,876.133 C511.911,869.59 509.156,858.913 509.156,844.103 L509.156,827.916 L476.781,827.916 L476.781,844.103 Z " fill="#1b1f21" fill-opacity="1.00" />		</g>	</svg>